%
M48
M72
T01C0.0236
T02C0.0400
%
T01
X5100Y6844
X6600Y6844
X6600Y5344
X8600Y5344
X8600Y6344
X8600Y7344
X9407Y8259
X8100Y9844
X4600Y9844
X12100Y8844
X13100Y9844
X14600Y8344
X13100Y7344
T02
X2550Y5344
X2650Y6344
X2550Y7344
X2650Y8344
X6600Y3844
X7600Y3844
X8600Y3844
X9600Y3844
X10600Y3844
X10600Y23844
X9600Y23844
X8600Y23844
X7600Y23844
X6600Y23844
X5600Y23844
X11600Y23844
X12600Y23844
M30
